<svg width="162" height="162" viewBox="0 0 162 162" fill="none" xmlns="http://www.w3.org/2000/svg">
<g filter="url(#filter0_d_416_1966)">
<rect x="4" y="2" width="153.662" height="153.662" rx="76.8311" fill="white" shape-rendering="crispEdges"/>
<path d="M149.628 80.9781C148.443 118.973 116.678 148.814 78.6832 147.628C40.6882 146.444 10.8482 114.68 12.0342 76.6851C13.2192 38.6881 44.9812 8.84911 82.9762 10.0341C120.971 11.2191 150.813 42.9821 149.628 80.9781Z" fill="#DBEAFF"/>
<path d="M50.1781 94.618C48.8671 94.622 47.9621 95.95 48.4591 97.163C51.0421 103.469 59.6711 119.345 81.0731 119.345C102.465 119.345 111.289 103.359 113.953 96.997C114.464 95.778 113.551 94.434 112.229 94.438L50.1781 94.618Z" fill="#7488A3" stroke="#7488A3" stroke-width="6.1537" stroke-miterlimit="10" stroke-linecap="round"/>
<path d="M108.18 56.1079C112.053 54.5652 115.69 56.1648 117.991 59.3349C120.395 56.2418 124.081 54.7617 127.902 56.4293C132.702 58.5234 133.631 63.5598 131.537 68.3596C130.026 71.8221 123.438 78.2728 119.886 81.598C118.606 82.7957 116.613 82.7633 115.373 81.5243C111.93 78.0852 105.557 71.4236 104.159 67.9142C102.222 63.0474 103.315 58.0445 108.18 56.1079Z" fill="#7488A3"/>
<path d="M35.9978 56.1079C39.87 54.5652 43.5078 56.1648 45.8094 59.3349C48.2127 56.2418 51.8996 54.7617 55.7204 56.4293C60.5202 58.5234 61.4489 63.5598 59.3548 68.3596C57.8435 71.8221 51.2566 78.2728 47.7037 81.598C46.4245 82.7957 44.4309 82.7633 43.1908 81.5243C39.7483 78.0852 33.3747 71.4236 31.9772 67.9142C30.0405 63.0474 31.1333 58.0445 35.9978 56.1079Z" fill="#7488A3"/>
</g>
<defs>
<filter id="filter0_d_416_1966" x="0" y="0" width="161.662" height="161.662" filterUnits="userSpaceOnUse" color-interpolation-filters="sRGB">
<feFlood flood-opacity="0" result="BackgroundImageFix"/>
<feColorMatrix in="SourceAlpha" type="matrix" values="0 0 0 0 0 0 0 0 0 0 0 0 0 0 0 0 0 0 127 0" result="hardAlpha"/>
<feOffset dy="2"/>
<feGaussianBlur stdDeviation="2"/>
<feComposite in2="hardAlpha" operator="out"/>
<feColorMatrix type="matrix" values="0 0 0 0 0 0 0 0 0 0 0 0 0 0 0 0 0 0 0.15 0"/>
<feBlend mode="normal" in2="BackgroundImageFix" result="effect1_dropShadow_416_1966"/>
<feBlend mode="normal" in="SourceGraphic" in2="effect1_dropShadow_416_1966" result="shape"/>
</filter>
</defs>
</svg>
