<svg width="162" height="162" viewBox="0 0 162 162" fill="none" xmlns="http://www.w3.org/2000/svg">
<g filter="url(#filter0_d_416_1963)">
<rect x="4" y="2" width="153.662" height="153.662" rx="76.831" fill="white" shape-rendering="crispEdges"/>
<path d="M149.662 78.831C149.662 116.844 118.845 147.662 80.83 147.662C42.816 147.662 12 116.845 12 78.831C12 40.816 42.816 10 80.83 10C118.845 10 149.662 40.816 149.662 78.831Z" fill="#DBEAFF"/>
<path d="M102.136 73.417C102.136 73.417 102.011 62.75 111.511 62.75C121.011 62.75 120.803 73.333 120.803 73.333" stroke="#7488A3" stroke-width="7" stroke-miterlimit="10" stroke-linecap="round"/>
<path d="M40.6359 73.417C40.6359 73.417 40.5109 62.75 50.0109 62.75C59.5109 62.75 59.303 73.333 59.303 73.333" stroke="#7488A3" stroke-width="7" stroke-miterlimit="10" stroke-linecap="round"/>
<path d="M105.386 96.75C105.386 96.75 100.172 115 80.61 115C61.047 115 56.054 96.893 56.054 96.893" stroke="#7488A3" stroke-width="7" stroke-miterlimit="10" stroke-linecap="round"/>
</g>
<defs>
<filter id="filter0_d_416_1963" x="0" y="0" width="161.662" height="161.662" filterUnits="userSpaceOnUse" color-interpolation-filters="sRGB">
<feFlood flood-opacity="0" result="BackgroundImageFix"/>
<feColorMatrix in="SourceAlpha" type="matrix" values="0 0 0 0 0 0 0 0 0 0 0 0 0 0 0 0 0 0 127 0" result="hardAlpha"/>
<feOffset dy="2"/>
<feGaussianBlur stdDeviation="2"/>
<feComposite in2="hardAlpha" operator="out"/>
<feColorMatrix type="matrix" values="0 0 0 0 0 0 0 0 0 0 0 0 0 0 0 0 0 0 0.15 0"/>
<feBlend mode="normal" in2="BackgroundImageFix" result="effect1_dropShadow_416_1963"/>
<feBlend mode="normal" in="SourceGraphic" in2="effect1_dropShadow_416_1963" result="shape"/>
</filter>
</defs>
</svg>
