<svg width="162" height="162" viewBox="0 0 162 162" fill="none" xmlns="http://www.w3.org/2000/svg">
<g filter="url(#filter0_d_416_1964)">
<rect x="4" y="2" width="153.661" height="153.661" rx="76.8306" fill="white" shape-rendering="crispEdges"/>
<path d="M149.627 80.9772C148.441 118.972 116.678 148.812 78.6832 147.627C40.6882 146.442 10.8482 114.679 12.0342 76.6842C13.2192 38.6882 44.9812 8.84816 82.9762 10.0342C120.97 11.2192 150.813 42.9812 149.627 80.9772Z" fill="#FFD21F"/>
<path d="M49 81.6614C46.25 81.6614 44 79.4114 44 76.6614V64.6614C44 61.9114 46.25 59.6614 49 59.6614C51.75 59.6614 54 61.9114 54 64.6614V76.6614C54 79.4114 51.75 81.6614 49 81.6614Z" fill="#403408"/>
<path d="M111.666 81.6614C108.916 81.6614 106.666 79.4114 106.666 76.6614V64.6614C106.666 61.9114 108.916 59.6614 111.666 59.6614C114.416 59.6614 116.666 61.9114 116.666 64.6614V76.6614C116.666 79.4114 114.416 81.6614 111.666 81.6614Z" fill="#403408"/>
<path d="M44 97.6614H122.83" stroke="#403408" stroke-width="6" stroke-miterlimit="10" stroke-linecap="round"/>
</g>
<defs>
<filter id="filter0_d_416_1964" x="0" y="0" width="161.661" height="161.661" filterUnits="userSpaceOnUse" color-interpolation-filters="sRGB">
<feFlood flood-opacity="0" result="BackgroundImageFix"/>
<feColorMatrix in="SourceAlpha" type="matrix" values="0 0 0 0 0 0 0 0 0 0 0 0 0 0 0 0 0 0 127 0" result="hardAlpha"/>
<feOffset dy="2"/>
<feGaussianBlur stdDeviation="2"/>
<feComposite in2="hardAlpha" operator="out"/>
<feColorMatrix type="matrix" values="0 0 0 0 0 0 0 0 0 0 0 0 0 0 0 0 0 0 0.15 0"/>
<feBlend mode="normal" in2="BackgroundImageFix" result="effect1_dropShadow_416_1964"/>
<feBlend mode="normal" in="SourceGraphic" in2="effect1_dropShadow_416_1964" result="shape"/>
</filter>
</defs>
</svg>
