<svg width="162" height="162" viewBox="0 0 162 162" fill="none" xmlns="http://www.w3.org/2000/svg">
<g filter="url(#filter0_d_416_1965)">
<rect x="4" y="2" width="153.662" height="153.662" rx="76.8311" fill="white" shape-rendering="crispEdges"/>
<path d="M149.628 80.9781C148.443 118.973 116.678 148.814 78.6832 147.628C40.6882 146.444 10.8482 114.68 12.0342 76.6851C13.2192 38.6881 44.9812 8.84911 82.9762 10.0341C120.971 11.2191 150.813 42.9821 149.628 80.9781Z" fill="#FFD21F"/>
<path d="M50.1781 94.618C48.8671 94.622 47.9621 95.95 48.4591 97.163C51.0421 103.469 59.6711 119.345 81.0731 119.345C102.465 119.345 111.289 103.359 113.953 96.997C114.464 95.778 113.551 94.434 112.229 94.438L50.1781 94.618Z" fill="white" stroke="white" stroke-width="6.1537" stroke-miterlimit="10" stroke-linecap="round"/>
<path d="M107.18 46.1079C111.053 44.5652 114.69 46.1648 116.991 49.3349C119.395 46.2418 123.081 44.7617 126.902 46.4293C131.702 48.5234 132.631 53.5598 130.537 58.3596C129.026 61.8221 122.438 68.2728 118.886 71.598C117.606 72.7957 115.613 72.7633 114.373 71.5243C110.93 68.0852 104.557 61.4236 103.159 57.9142C101.222 53.0474 102.315 48.0445 107.18 46.1079Z" fill="#FF5A58"/>
<path d="M34.9978 46.1079C38.87 44.5652 42.5078 46.1648 44.8094 49.3349C47.2127 46.2418 50.8996 44.7617 54.7204 46.4293C59.5202 48.5234 60.4489 53.5598 58.3548 58.3596C56.8435 61.8221 50.2566 68.2728 46.7037 71.598C45.4245 72.7957 43.4309 72.7633 42.1908 71.5243C38.7483 68.0852 32.3747 61.4236 30.9772 57.9142C29.0405 53.0474 30.1333 48.0445 34.9978 46.1079Z" fill="#FF5A58"/>
</g>
<defs>
<filter id="filter0_d_416_1965" x="0" y="0" width="161.662" height="161.662" filterUnits="userSpaceOnUse" color-interpolation-filters="sRGB">
<feFlood flood-opacity="0" result="BackgroundImageFix"/>
<feColorMatrix in="SourceAlpha" type="matrix" values="0 0 0 0 0 0 0 0 0 0 0 0 0 0 0 0 0 0 127 0" result="hardAlpha"/>
<feOffset dy="2"/>
<feGaussianBlur stdDeviation="2"/>
<feComposite in2="hardAlpha" operator="out"/>
<feColorMatrix type="matrix" values="0 0 0 0 0 0 0 0 0 0 0 0 0 0 0 0 0 0 0.15 0"/>
<feBlend mode="normal" in2="BackgroundImageFix" result="effect1_dropShadow_416_1965"/>
<feBlend mode="normal" in="SourceGraphic" in2="effect1_dropShadow_416_1965" result="shape"/>
</filter>
</defs>
</svg>
